<svg width="56" height="58" viewBox="0 0 56 58" fill="none" xmlns="http://www.w3.org/2000/svg">
<path d="M55.3464 29.0425C55.3464 32.3031 54.0064 35.251 51.8625 37.395C49.7185 39.5389 46.7706 40.8789 43.51 40.8789H39.8027V38.6903C40.3387 38.333 40.83 37.8863 41.3214 37.4397C43.4653 35.2957 44.8053 32.3478 44.8053 29.0872C44.8053 25.1119 42.84 21.5833 39.8474 19.4394V17.2507H43.5547C50.0312 17.2061 55.3464 22.5213 55.3464 29.0425Z" fill="#00CCEB"/>
<path d="M44.7604 29.0423C44.7604 32.3029 43.4204 35.2508 41.2764 37.3948C40.8298 37.8415 40.2938 38.2881 39.7578 38.6454V33.9109V24.0844V19.3499C42.7951 21.5385 44.7604 25.0671 44.7604 29.0423Z" fill="#08FFFF"/>
<path d="M39.802 40.8788V46.5513C39.802 52.5365 34.9334 57.4051 28.9482 57.4051H27.0276C21.0424 57.4051 16.1738 52.5365 16.1738 46.5513V40.8788H18.6304C20.5957 43.2907 23.633 44.8094 26.9829 44.8094H28.9036C32.2535 44.8094 35.2907 43.2907 37.256 40.8788H39.802Z" fill="#A936A3"/>
<path d="M39.8021 38.6902V40.8789H37.3008C37.6134 40.4769 37.9261 40.0749 38.1941 39.6282C38.7301 39.3602 39.2661 39.0476 39.8021 38.6902Z" fill="#32096D"/>
<path d="M39.8023 33.9557V38.6902C39.311 39.0475 38.775 39.3602 38.1943 39.6729C39.2216 37.9756 39.8023 36.0549 39.8023 33.9557Z" fill="#32096D"/>
<path d="M39.8027 24.1292V33.9556C39.8027 36.0549 39.2221 37.9755 38.1947 39.6282C36.6314 40.4321 34.8448 40.8788 32.9242 40.8788H23.0084C21.1324 40.8788 19.3458 40.4321 17.7378 39.6282C16.7105 37.9755 16.1299 36.0102 16.1299 33.9556V24.1292C16.1299 22.0299 16.7105 20.1093 17.7378 18.4566C19.3011 17.6526 21.0878 17.206 23.0084 17.206H32.9242C34.8001 17.206 36.5868 17.6526 38.1947 18.4566C39.2221 20.1093 39.8027 22.0299 39.8027 24.1292Z" fill="#32096D"/>
<path d="M39.8023 19.3945V24.1291C39.8023 22.0298 39.2216 20.1092 38.1943 18.4566C38.7303 18.7246 39.2663 19.0372 39.8023 19.3945Z" fill="#32096D"/>
<path d="M39.8021 17.206V19.3946C39.3107 19.0373 38.7748 18.7246 38.1941 18.4119C37.9261 17.9653 37.6581 17.5633 37.3008 17.1613H39.8021V17.206Z" fill="#32096D"/>
<path d="M39.802 11.5335V17.2507H37.3007C35.3354 14.8387 32.2981 13.3201 28.9482 13.3201H27.0276C23.633 13.3201 20.6404 14.8387 18.6751 17.2507H16.1738V11.5335C16.1738 5.54825 21.0424 0.679689 27.0276 0.679689H28.9482C34.9334 0.679689 39.802 5.50359 39.802 11.5335Z" fill="#FFAF0E"/>
<path d="M37.3011 17.206C37.6137 17.608 37.9264 18.01 38.1944 18.4566C36.6311 17.6526 34.8445 17.206 32.9238 17.206H37.3011Z" fill="#32096D"/>
<path d="M38.1944 39.6283C37.9264 40.0749 37.6584 40.4769 37.3011 40.8789H32.9238C34.7998 40.8789 36.5864 40.4322 38.1944 39.6283Z" fill="#32096D"/>
<path d="M37.3011 17.2061H32.9239H23.0081H18.6309C20.5962 14.7941 23.6334 13.2755 26.9833 13.2755H28.904C32.2986 13.2755 35.2912 14.7941 37.3011 17.2061Z" fill="#FFD710"/>
<path d="M32.9241 40.8788H37.3014C35.3361 43.2907 32.2988 44.8094 28.9489 44.8094H27.0283C23.6337 44.8094 20.6411 43.2907 18.6758 40.8788H23.053H32.9241Z" fill="#CC4CCC"/>
<path d="M18.6306 17.206H23.0079C21.1319 17.206 19.3453 17.6526 17.7373 18.4566C18.0053 18.01 18.318 17.608 18.6306 17.206Z" fill="#32096D"/>
<path d="M23.0079 40.8789H18.6306C18.318 40.4769 18.0053 40.0749 17.7373 39.6283C19.3453 40.4322 21.1319 40.8789 23.0079 40.8789Z" fill="#32096D"/>
<path d="M16.1299 17.206H18.6312C18.3185 17.608 18.0058 18.01 17.7378 18.4566C17.1572 18.7246 16.6212 19.0373 16.1299 19.4393V17.206Z" fill="#32096D"/>
<path d="M18.6312 40.8789H16.1299V38.6902C16.6212 39.0476 17.1572 39.3602 17.7378 39.6729C18.0058 40.0749 18.3185 40.4769 18.6312 40.8789Z" fill="#32096D"/>
<path d="M17.7378 18.4566C16.7105 20.1092 16.1299 22.0745 16.1299 24.1291V19.3945C16.6212 19.0372 17.2019 18.7246 17.7378 18.4566Z" fill="#32096D"/>
<path d="M16.1299 33.9557C16.1299 36.0549 16.7105 37.9756 17.7378 39.6282C17.1572 39.3602 16.6212 39.0475 16.1299 38.6456V33.9557Z" fill="#32096D"/>
<path d="M16.1296 38.6455V40.8341H12.4223C5.90116 40.8341 0.585938 35.5189 0.585938 28.9977C0.585938 25.7371 1.92591 22.7892 4.06986 20.6452C6.21382 18.5013 9.16175 17.1613 12.4223 17.1613H16.1296V19.3499C15.5936 19.7072 15.1023 20.1539 14.6556 20.6006C12.5117 22.7445 11.1717 25.6925 11.1717 28.9531C11.1717 33.0176 13.137 36.5015 16.1296 38.6455Z" fill="#FF5A00"/>
<path d="M16.1298 33.9557V38.6903C13.1372 36.5463 11.1719 33.0177 11.1719 29.0871C11.1719 25.8265 12.5118 22.8786 14.6558 20.7346C15.1025 20.288 15.5938 19.8413 16.1298 19.484V24.2186V33.9557Z" fill="#FF9100"/>
<path d="M27.8315 25.8711C26.7595 25.9158 26.2682 26.6304 26.2682 28.0597V35.9209H22.1143V28.0597C22.1143 24.2631 24.0349 22.2979 27.8761 22.0745H28.0995C31.9407 22.2532 33.8613 24.2631 33.8613 28.0597V35.9209H29.7074V28.0597C29.7074 26.6304 29.1714 25.8711 28.1441 25.8711H27.8315Z" fill="white"/>
</svg>
